<svg width="24" height="24" viewBox="0 0 24 24" fill="none" xmlns="http://www.w3.org/2000/svg">
<path d="M19.9999 21.5761L4.00006 21.5761" stroke-linecap="round" stroke-linejoin="round"/>
<path d="M19.9999 21.5762V19.3647C19.9999 18.1917 19.5785 17.0667 18.8284 16.2372C18.0782 15.4078 17.0608 14.9418 16 14.9418H8.00003C6.93917 14.9418 5.92176 15.4078 5.17162 16.2372C4.42148 17.0667 4.00006 18.1917 4.00006 19.3647V21.5762"  stroke-linecap="round" stroke-linejoin="round"/>
<path d="M11.9999 10.9612C14.2091 10.9612 15.9999 9.17904 15.9999 6.98061C15.9999 4.78218 14.2091 3 11.9999 3C9.79082 3 7.99997 4.78218 7.99997 6.98061C7.99997 9.17904 9.79082 10.9612 11.9999 10.9612Z"  stroke-linecap="round" stroke-linejoin="round"/>
</svg>
