<svg width="686" height="685" viewBox="0 0 686 685" fill="none" xmlns="http://www.w3.org/2000/svg">
<g clip-path="url(#clip0)">
<path d="M485.352 684.657H200.648C90.2 684.657 0.671661 595.128 0.671661 484.68V199.977C0.671661 89.5284 90.2 0 200.648 0H485.304C595.8 0 685.328 89.5284 685.328 199.977V484.632C685.328 595.128 595.8 684.657 485.352 684.657Z" fill="white"/>
<path d="M500.184 338.284L578.824 259.644C622.281 303.101 622.281 373.516 578.824 416.972L500.184 338.284Z" fill="#3C64B1"/>
<path d="M421.571 259.588L500.207 180.952L421.571 102.316L342.935 180.952L421.571 259.588Z" fill="#3C64B1"/>
<path d="M264.253 574.215L342.889 495.579L264.253 416.943L185.617 495.579L264.253 574.215Z" fill="#3C64B1"/>
<path d="M500.23 495.598L578.866 416.962L500.23 338.326L421.594 416.962L500.23 495.598Z" fill="#3C64B1"/>
<path d="M421.576 574.197L500.212 495.561L421.576 416.925L342.94 495.561L421.576 574.197Z" fill="#3C64B1"/>
<path d="M179.798 344.056L342.884 180.97L264.248 102.334L101.162 265.42L179.798 344.056Z" fill="#3C64B1"/>
<path d="M106.937 259.644L185.577 338.284L106.937 416.925C63.4799 373.516 63.4799 303.053 106.937 259.644Z" fill="#3C64B1"/>
</g>
<defs>
<clipPath id="clip0">
<rect x="0.671661" width="684.657" height="684.657" fill="white"/>
</clipPath>
</defs>
</svg>
